# xmcd
#
# Track frame offsets:
#	150
#	21580
#	45502
#	63672
#	82752
#	101167
#	124340
#	142585
#	161752
#	179485
#	204667
#	224182
#	241577
#	260467
#	287375
#	304442
#
# Disc length: 4310 seconds
#
# Revision: 1
# Processed by: cddbd v1.5.1PL0 Copyright (c) Steve Scherf et al.
# Submitted via: CDex 1.50Beta5
#
DISCID=ed10d410
DTITLE=SHOW-YA - SHOW-YA/ニュー・ベスト・ナウ70
DYEAR=1988
DGENRE=Pop
TTITLE0=ターロン・オブ・キング
TTITLE1=AU REVOIR
TTITLE2=Masquerade
TTITLE3=Hurry Up
TTITLE4=しどけなくエモーション
TTITLE5=サイレント・ビジョン
TTITLE6=S・T・O・P
TTITLE7=ONE WAY HEART
TTITLE8=FAIRY
TTITLE9=Everybody Someday
TTITLE10=雨のナイフ
TTITLE11=ビスコンティの肖像
TTITLE12=その後で殺したい
TTITLE13=サーモスタットの瞳
TTITLE14=水の中の逃亡者
TTITLE15=フェルマータ
EXTD=
EXTT0=
EXTT1=
EXTT2=
EXTT3=
EXTT4=
EXTT5=
EXTT6=
EXTT7=
EXTT8=
EXTT9=
EXTT10=
EXTT11=
EXTT12=
EXTT13=
EXTT14=
EXTT15=
PLAYORDER=
